HIERARCHY
ROOT Hips
{
	OFFSET -0.001795 -0.223333 0.028219
	CHANNELS 6 Xposition Yposition Zposition Zrotation Yrotation Xrotation 
	JOINT LeftUpLeg
	{
		OFFSET 0.069520 -0.091406 -0.006815
		CHANNELS 3 Zrotation Yrotation Xrotation
		JOINT LeftLeg
		{
			OFFSET 0.034277 -0.375199 -0.004496
			CHANNELS 3 Zrotation Yrotation Xrotation
			JOINT LeftFoot
			{
				OFFSET -0.013596 -0.397961 -0.043693
				CHANNELS 3 Zrotation Yrotation Xrotation
				JOINT LeftToe
				{
					OFFSET 0.026358 -0.055791 0.119288
					CHANNELS 3 Zrotation Yrotation Xrotation
					End Site
					{
						OFFSET 0.000000 0.000000 0.000000
					}
				}
			}
		}
	}
	JOINT RightUpLeg
	{
		OFFSET -0.067670 -0.090522 -0.004320
		CHANNELS 3 Zrotation Yrotation Xrotation
		JOINT RightLeg
		{
			OFFSET -0.038290 -0.382569 -0.008850
			CHANNELS 3 Zrotation Yrotation Xrotation
			JOINT RightFoot
			{
				OFFSET 0.015774 -0.398415 -0.042312
				CHANNELS 3 Zrotation Yrotation Xrotation
				JOINT RightToe
				{
					OFFSET -0.025372 -0.048144 0.123348
					CHANNELS 3 Zrotation Yrotation Xrotation
					End Site
					{
						OFFSET 0.000000 0.000000 0.000000
					}
				}
			}
		}
	}
	JOINT Spine
	{
		OFFSET -0.002533 0.108963 -0.026696
		CHANNELS 3 Zrotation Yrotation Xrotation
		JOINT Spine1
		{
			OFFSET 0.005487 0.135180 0.001092
			CHANNELS 3 Zrotation Yrotation Xrotation
			JOINT Spine2
			{
				OFFSET 0.001457 0.052922 0.025425
				CHANNELS 3 Zrotation Yrotation Xrotation
				JOINT Neck
				{
					OFFSET -0.002778 0.213870 -0.042857
					CHANNELS 3 Zrotation Yrotation Xrotation
					JOINT Head
					{
						OFFSET 0.005152 0.064970 0.051349
						CHANNELS 3 Zrotation Yrotation Xrotation
						End Site
						{
							OFFSET 0.000000 0.000000 0.000000
						}
					}
				}
				JOINT LeftShoulder
				{
					OFFSET 0.078845 0.121749 -0.034090
					CHANNELS 3 Zrotation Yrotation Xrotation
					JOINT LeftArm
					{
						OFFSET 0.090977 0.030469 -0.008868
						CHANNELS 3 Zrotation Yrotation Xrotation
						JOINT LeftForeArm
						{
							OFFSET 0.259612 -0.012772 -0.027456
							CHANNELS 3 Zrotation Yrotation Xrotation
							JOINT LeftHand
							{
								OFFSET 0.249234 0.008986 -0.001171
								CHANNELS 3 Zrotation Yrotation Xrotation
								End Site
								{
									OFFSET 0.000000 0.000000 0.000000
								}
							}
						}
					}
				}
				JOINT RightShoulder
				{
					OFFSET -0.081759 0.118833 -0.038615
					CHANNELS 3 Zrotation Yrotation Xrotation
					JOINT RightArm
					{
						OFFSET -0.096012 0.032551 -0.009143
						CHANNELS 3 Zrotation Yrotation Xrotation
						JOINT RightForeArm
						{
							OFFSET -0.253742 -0.013329 -0.021401
							CHANNELS 3 Zrotation Yrotation Xrotation
							JOINT RightHand
							{
								OFFSET -0.255298 0.007772 -0.005559
								CHANNELS 3 Zrotation Yrotation Xrotation
								End Site
								{
									OFFSET 0.000000 0.000000 0.000000
								}
							}
						}
					}
				}
			}
		}
	}
}
MOTION
Frames: 18
Frame Time: 0.050000
0.003187 0.942780 0.007025 0.455104 -18.607033 7.387054 -2.129808 -0.517308 -4.601093 -1.584247 0.262520 -2.067190 -3.415342 -6.249111 3.128405 0.000000 0.000000 0.000000 2.851714 0.817908 -8.279042 -1.776587 0.337789 3.261810 4.390843 10.643609 0.713198 0.000000 0.000000 0.000000 6.190236 -0.248525 0.963847 -0.670399 0.286735 -1.908062 -5.022647 1.731444 9.175967 8.268691 -4.827392 -15.255934 0.000000 0.000000 0.000000 -14.999697 -2.010332 1.263175 -49.886948 -11.542878 -1.819617 -19.001983 -59.314686 15.918852 0.000000 0.000000 0.000000 15.216199 -6.495530 -6.014960 55.828561 -1.300773 -6.384521 16.146879 33.880408 5.018120 0.000000 0.000000 0.000000 
0.001561 0.941878 0.009211 0.411273 -19.140652 7.235701 -2.338354 -0.488678 -4.231074 -1.580523 0.259456 -1.787204 -2.691156 -5.048243 2.379288 0.000000 0.000000 0.000000 3.065743 0.765807 -7.914034 -2.109159 0.371484 3.279379 4.411926 10.674104 0.716694 0.000000 0.000000 0.000000 6.223368 -0.211226 0.615085 -0.752612 0.331224 -1.656722 -4.669152 1.994262 9.313935 8.013051 -4.637236 -15.611354 0.000000 0.000000 0.000000 -14.604367 0.313663 0.056736 -49.525883 -7.371470 -3.462856 -34.145182 -66.370970 28.949938 0.000000 0.000000 0.000000 15.779380 -6.683550 -6.271956 55.502606 -1.562710 -6.438547 16.595332 34.320627 5.208444 0.000000 0.000000 0.000000 
0.000156 0.941765 0.010255 0.433783 -19.166150 7.267793 -2.557754 -0.520464 -4.470817 -1.414162 0.225109 -0.976750 -2.219300 -4.258291 1.789377 0.000000 0.000000 0.000000 2.864634 0.770286 -7.962601 -1.967580 0.377821 3.560984 4.316783 10.642503 0.523918 0.000000 0.000000 0.000000 6.508391 -0.167475 0.117687 -0.832983 0.380142 -1.351721 -4.749944 2.506231 8.944902 8.339692 -4.744843 -15.794470 0.000000 0.000000 0.000000 -14.017695 1.019308 -0.421872 -49.650262 -4.945222 -4.351548 -50.017106 -69.579301 42.735561 0.000000 0.000000 0.000000 16.377958 -7.307174 -6.628445 55.882299 -1.839331 -6.574408 16.492057 34.500765 5.272916 0.000000 0.000000 0.000000 
-0.000957 0.942035 0.010490 0.521751 -18.137538 7.200566 -2.739012 -0.535634 -4.598545 -1.453193 0.224045 -0.746349 -2.606505 -5.031654 1.825255 0.000000 0.000000 0.000000 2.920333 0.742699 -7.715056 -1.895351 0.385481 3.741796 4.071524 9.955304 0.560980 0.000000 0.000000 0.000000 6.617088 -0.121744 -0.372089 -0.548803 0.272608 -0.814743 -5.094409 1.908376 8.601602 8.377933 -4.820367 -15.234105 0.000000 0.000000 0.000000 -14.265840 0.632049 -0.255684 -49.604623 -6.394179 -3.753138 -55.235376 -70.971135 47.969564 0.000000 0.000000 0.000000 16.417276 -7.133923 -6.540285 56.503261 -1.871785 -6.646046 15.499172 33.752159 4.873163 0.000000 0.000000 0.000000 
-0.002056 0.942582 0.010494 0.828813 -16.883501 7.016751 -2.871831 -0.578523 -5.000362 -1.399215 0.202321 0.069859 -3.403770 -6.685732 1.746081 0.000000 0.000000 0.000000 2.545018 0.680501 -7.201957 -1.547548 0.346468 3.690388 4.041361 10.078915 0.378758 0.000000 0.000000 0.000000 6.750402 -0.082093 -0.774834 -0.412131 0.204008 -0.948280 -5.384092 1.572732 8.557071 8.578853 -4.932152 -15.084931 0.000000 0.000000 0.000000 -15.072982 -1.062007 0.552155 -49.959781 -9.694108 -2.490912 -51.267676 -71.252447 44.805059 0.000000 0.000000 0.000000 16.338380 -7.237629 -6.488998 57.235334 -1.472237 -6.576825 14.281581 32.742421 4.432292 0.000000 0.000000 0.000000 
-0.003331 0.942651 0.010933 0.881355 -15.401029 6.541375 -2.587072 -0.526588 -4.630996 -1.622618 0.227770 0.170974 -4.187020 -8.031566 2.330129 0.000000 0.000000 0.000000 2.405645 0.581773 -6.345391 -1.242508 0.305674 3.554321 3.718730 9.657164 -0.038826 0.000000 0.000000 0.000000 6.779443 -0.052813 -1.002679 0.100636 -0.023329 -0.591038 -5.952647 1.304891 8.116784 8.988368 -5.146068 -14.847646 0.000000 0.000000 0.000000 -15.837563 -2.804693 1.311499 -50.524502 -12.444084 -1.344345 -48.960394 -70.017609 41.719763 0.000000 0.000000 0.000000 15.942187 -7.141911 -6.195462 57.946634 -1.157632 -6.517868 13.723944 31.728384 4.211934 0.000000 0.000000 0.000000 
-0.005127 0.942302 0.011884 0.947715 -14.749087 6.124621 -2.599442 -0.474647 -4.153002 -1.672578 0.233939 0.021877 -4.857055 -9.314500 2.488078 0.000000 0.000000 0.000000 2.511060 0.456312 -5.303321 -1.393759 0.299493 3.202705 3.957342 10.592490 -0.337253 0.000000 0.000000 0.000000 6.687680 -0.015283 -1.286424 0.118621 -0.033632 -0.545277 -5.978994 1.078016 8.271869 8.720790 -5.109419 -13.968294 0.000000 0.000000 0.000000 -16.342144 -3.456643 1.644687 -50.743010 -13.802030 -0.806743 -45.896143 -68.387898 38.164898 0.000000 0.000000 0.000000 15.569644 -6.739547 -5.877065 58.072990 -0.837537 -6.411664 14.109559 30.893350 4.209017 0.000000 0.000000 0.000000 
-0.007247 0.941875 0.013082 1.029517 -14.532148 6.033079 -2.513482 -0.461932 -4.059806 -1.781667 0.250619 -0.190955 -5.312908 -10.211367 2.540207 0.000000 0.000000 0.000000 2.361315 0.414736 -4.938378 -1.577414 0.295422 2.842338 4.034815 11.108095 -0.628671 0.000000 0.000000 0.000000 6.458468 0.020962 -1.614225 0.032183 0.006955 -0.484481 -6.209913 1.487352 8.203059 8.594252 -5.075139 -13.340370 0.000000 0.000000 0.000000 -16.450113 -3.138699 1.346277 -51.070144 -12.513615 -1.327454 -43.143081 -64.992829 33.705065 0.000000 0.000000 0.000000 15.272892 -6.973404 -5.803566 58.064971 -1.308006 -6.647807 15.577781 30.768899 4.626655 0.000000 0.000000 0.000000 
-0.009381 0.941263 0.014150 1.049491 -14.654868 6.030199 -2.569292 -0.412476 -3.591411 -1.951664 0.283161 -1.005510 -5.495737 -10.559598 2.602653 0.000000 0.000000 0.000000 2.581155 0.375285 -4.651686 -2.007426 0.312831 2.445624 4.406379 11.938652 -0.470794 0.000000 0.000000 0.000000 6.204938 0.045852 -1.846249 -0.155710 0.083239 -0.912256 -6.367739 2.020838 9.059227 8.557315 -5.085850 -13.159964 0.000000 0.000000 0.000000 -16.420714 -2.042299 0.705106 -50.835717 -9.481363 -2.650492 -40.821815 -61.833030 30.082902 0.000000 0.000000 0.000000 15.378424 -7.036195 -5.777413 57.807473 -1.891143 -6.965184 17.296252 31.455665 5.253174 0.000000 0.000000 0.000000 
-0.011299 0.940773 0.014610 1.115952 -14.868866 6.386941 -2.549813 -0.450489 -3.947266 -1.853727 0.270929 -1.010464 -5.724423 -11.088602 2.475503 0.000000 0.000000 0.000000 2.693927 0.429402 -5.132991 -2.232214 0.355558 2.742812 4.434377 12.215137 -0.636907 0.000000 0.000000 0.000000 6.015349 0.076805 -2.212623 -0.386209 0.190283 -0.903115 -6.681049 2.939418 9.275010 8.360153 -4.833112 -13.551862 0.000000 0.000000 0.000000 -15.478528 -0.385626 -0.311283 -51.946160 -5.581873 -4.278140 -36.053557 -57.836680 24.621546 0.000000 0.000000 0.000000 15.478397 -7.872602 -6.048622 57.552434 -1.981666 -6.985668 19.581039 31.822047 6.037026 0.000000 0.000000 0.000000 
-0.012812 0.940771 0.014368 0.924528 -14.504250 6.777962 -2.108347 -0.477393 -4.333340 -2.157523 0.310138 -1.088322 -5.856108 -11.178012 2.807710 0.000000 0.000000 0.000000 2.936371 0.524028 -5.889153 -2.409901 0.409519 3.217913 4.263345 12.083806 -0.920711 0.000000 0.000000 0.000000 5.719073 0.065871 -2.197143 -0.596998 0.276433 -1.340448 -6.812014 3.397963 9.816977 8.283313 -4.691629 -13.917858 0.000000 0.000000 0.000000 -15.185555 0.805296 -1.013859 -52.590791 -2.103861 -5.807973 -29.870093 -53.579019 18.934485 0.000000 0.000000 0.000000 15.347278 -7.949217 -5.937962 57.699117 -2.351003 -7.229319 20.751903 32.742254 6.652800 0.000000 0.000000 0.000000 
-0.013958 0.940811 0.013464 0.832207 -14.036495 7.189129 -1.813845 -0.493514 -4.600485 -2.013737 0.294936 -1.566963 -6.072339 -11.504094 2.999793 0.000000 0.000000 0.000000 2.943453 0.644589 -6.795656 -2.295318 0.451083 3.939472 3.809704 11.277911 -1.307786 0.000000 0.000000 0.000000 5.171993 0.042400 -2.031761 -0.496440 0.219771 -1.926574 -7.013172 4.498515 10.240919 8.625815 -4.746841 -14.287134 0.000000 0.000000 0.000000 -14.403828 1.511665 -1.553160 -53.245446 -0.044007 -6.765112 -25.085286 -48.751807 14.382283 0.000000 0.000000 0.000000 15.745224 -8.240806 -5.919241 57.666955 -2.364821 -7.248847 22.186564 33.956395 7.548231 0.000000 0.000000 0.000000 
-0.014633 0.941295 0.012246 0.745796 -13.447261 7.637931 -1.520678 -0.529506 -5.084960 -2.122721 0.307400 -1.692545 -6.240537 -11.516427 3.592186 0.000000 0.000000 0.000000 2.806899 0.799601 -7.948921 -2.344026 0.537904 4.993075 3.511173 10.799568 -1.617577 0.000000 0.000000 0.000000 4.846165 0.030499 -1.979645 -0.629479 0.272086 -2.446287 -6.986718 5.219622 10.338148 8.526067 -4.509814 -14.756111 0.000000 0.000000 0.000000 -14.254758 1.826492 -1.878263 -53.234295 0.658749 -7.060652 -20.974127 -43.346590 10.672854 0.000000 0.000000 0.000000 15.626489 -7.922145 -5.545177 58.242461 -1.494595 -6.906570 22.489896 35.349333 8.152375 0.000000 0.000000 0.000000 
-0.014982 0.941576 0.010842 0.629457 -13.016529 7.739382 -1.354111 -0.520626 -5.063918 -1.941178 0.287873 -1.994469 -6.271739 -11.647690 3.437792 0.000000 0.000000 0.000000 2.643883 0.881297 -8.545508 -2.024474 0.549431 5.671459 3.119644 10.261880 -2.136743 0.000000 0.000000 0.000000 4.452079 0.001636 -1.634376 -0.613554 0.253936 -3.275257 -7.189826 6.480110 10.684839 8.948350 -4.622431 -14.916798 0.000000 0.000000 0.000000 -14.154892 1.014678 -1.725707 -53.310427 -0.080609 -6.793593 -16.495180 -40.128591 7.888787 0.000000 0.000000 0.000000 15.762069 -7.439377 -5.039195 58.557756 -0.325228 -6.403242 24.064795 37.694689 9.572415 0.000000 0.000000 0.000000 
-0.015024 0.941973 0.009546 0.726465 -12.454030 7.690114 -1.429372 -0.511007 -4.954302 -1.808767 0.276288 -2.346676 -6.439987 -11.753570 3.838245 0.000000 0.000000 0.000000 2.405045 0.900790 -8.699079 -2.092355 0.576985 5.915952 3.029454 9.876674 -2.028877 0.000000 0.000000 0.000000 4.174372 0.000086 -1.584498 -0.712687 0.301233 -3.259949 -7.342202 6.863277 10.286939 8.680111 -4.362144 -14.890175 0.000000 0.000000 0.000000 -14.632936 0.648993 -1.754176 -53.010909 -1.439630 -6.131675 -12.789149 -37.545239 5.932798 0.000000 0.000000 0.000000 15.312788 -6.355422 -4.276645 59.011071 2.026609 -5.254119 25.966081 39.038316 10.790589 0.000000 0.000000 0.000000 
-0.014890 0.942391 0.008297 0.820163 -12.111911 7.461011 -1.269639 -0.482331 -4.708691 -1.911468 0.289998 -2.513736 -6.519142 -11.692066 4.220847 0.000000 0.000000 0.000000 2.236793 0.894142 -8.646927 -2.004774 0.580022 6.112174 2.887198 9.784788 -2.336565 0.000000 0.000000 0.000000 3.970638 -0.019542 -1.283998 -1.029631 0.434098 -3.667949 -7.452927 7.906692 10.102159 9.324027 -4.610498 -15.099955 0.000000 0.000000 0.000000 -14.968917 -0.473306 -1.489502 -52.074390 -3.113568 -5.286010 -9.910211 -36.512920 4.643034 0.000000 0.000000 0.000000 15.427298 -5.654916 -3.699147 59.197934 4.355678 -4.095686 29.699520 42.027621 13.516982 0.000000 0.000000 0.000000 
-0.014661 0.942683 0.007102 0.816367 -11.739254 7.333881 -1.339398 -0.461939 -4.488993 -1.955165 0.299850 -2.869204 -6.386982 -11.194500 4.641284 0.000000 0.000000 0.000000 2.075419 0.887933 -8.602257 -1.832173 0.562536 6.203875 2.718990 9.140163 -2.186817 0.000000 0.000000 0.000000 3.752401 -0.008084 -1.368598 -1.074166 0.459487 -3.462980 -7.783142 8.325957 9.788984 9.530745 -4.679294 -15.013867 0.000000 0.000000 0.000000 -15.152441 -0.773785 -1.518203 -51.766998 -4.984927 -4.425900 -6.783883 -37.798480 3.658380 0.000000 0.000000 0.000000 15.198388 -4.558886 -2.980075 59.424202 6.767583 -2.864619 33.945491 44.636041 16.547458 0.000000 0.000000 0.000000 
-0.014395 0.943232 0.006011 0.658959 -11.690143 7.076442 -1.207923 -0.411341 -4.002143 -2.232809 0.334661 -3.155202 -6.406427 -11.000237 5.075672 0.000000 0.000000 0.000000 2.150448 0.843195 -8.232228 -1.837817 0.562663 6.192612 2.808019 9.041575 -1.851820 0.000000 0.000000 0.000000 3.917724 -0.016895 -1.250935 -1.486030 0.642672 -3.226958 -7.988931 8.635485 9.397004 10.082925 -5.089050 -14.515133 0.000000 0.000000 0.000000 -15.377104 -1.529201 -1.267535 -51.181644 -6.413103 -3.736971 -3.111996 -40.940695 2.556425 0.000000 0.000000 0.000000 15.370966 -3.728724 -2.499241 59.480019 8.281432 -2.073271 38.391961 47.066484 19.841062 0.000000 0.000000 0.000000 
